<svg width="291" height="70" viewBox="0 0 291 70" fill="none" xmlns="http://www.w3.org/2000/svg">
<g clip-path="url(#clip0_35_25586)">
<path d="M39.0797 20.1279C40.3274 20.0439 42.4708 18.9239 43.3866 18.3745L46.2332 24.3169C46.1974 24.5788 45.7455 25.533 44.2244 27.2546C42.3231 29.4066 37.3535 30.5819 34.4193 31.2465C31.4852 31.9111 30.2569 32.3052 27.2153 33.7554C24.782 34.9157 15.3079 45.6544 14.5737 47.4371L2.53405 31.2465C3.27647 30.0963 12.8218 20.4945 15.4736 18.8214C18.7883 16.73 25.545 17.5828 28.9252 18.5385C32.3053 19.4942 37.52 20.2329 39.0797 20.1279Z" fill="#F2575D" stroke="#4540DB" stroke-width="2.19388"/>
<circle cx="64.2641" cy="65.1318" r="1.82731" stroke="#4540DB" stroke-width="2.19388"/>
<circle cx="45.2423" cy="9.03964" r="5.01741" fill="white" stroke="#4540DB" stroke-width="2.19388"/>
<path d="M40.9881 19.6732L38.5955 23.9266L34.2817 31.8113L35.1396 41.738C41.1653 43.5103 53.908 47.0016 56.6727 46.789C59.4375 46.5763 59.4991 46.978 59.597 47.3207C60.4831 50.4221 62.3617 57.1036 62.7871 59.0177C63.3188 61.4102 63.8505 61.4102 66.5089 61.6761C68.6356 61.8888 68.8128 59.9924 68.6356 59.0177L68.1039 56.8909C67.1292 52.7261 65.1265 43.8647 64.9138 41.738C64.7011 39.6113 63.4074 39.0796 62.7871 39.0796H52.951C51.4623 39.0796 51.0901 37.839 51.0901 37.2187V22.3316C51.0901 19.6732 47.6341 18.0781 44.7099 18.0781C42.3705 18.0781 41.2539 19.1415 40.9881 19.6732Z" fill="#F9F9F9" stroke="#4540DB" stroke-width="2.19388"/>
<path d="M43.3812 27.3824L39.3936 32.6993V39.6111M39.6594 35.8894H50.5589" stroke="#4540DB" stroke-width="2.19388" stroke-linecap="round" stroke-linejoin="round"/>
<circle cx="43.1154" cy="53.1694" r="13.5579" fill="#FCFCFC" stroke="#4540DB" stroke-width="2.12673"/>
<circle cx="43.1152" cy="53.1691" r="2.53936" stroke="#4540DB" stroke-width="0.769782"/>
<path d="M53.897 61.9418H69.8474" stroke="#4540DB" stroke-width="2.19388" stroke-linecap="round" stroke-linejoin="round"/>
</g>
<path d="M96.684 51.44C94.2787 51.44 91.976 51.1027 89.776 50.428C87.576 49.724 85.8307 48.8293 84.54 47.744L86.52 43.3C87.752 44.268 89.2773 45.0747 91.096 45.72C92.9147 46.3653 94.7773 46.688 96.684 46.688C98.2973 46.688 99.6027 46.512 100.6 46.16C101.597 45.808 102.331 45.3387 102.8 44.752C103.269 44.136 103.504 43.4467 103.504 42.684C103.504 41.7453 103.167 40.9973 102.492 40.44C101.817 39.8533 100.937 39.3987 99.852 39.076C98.796 38.724 97.608 38.4013 96.288 38.108C94.9973 37.8147 93.692 37.4773 92.372 37.096C91.0813 36.6853 89.8933 36.172 88.808 35.556C87.752 34.9107 86.8867 34.06 86.212 33.004C85.5373 31.948 85.2 30.5987 85.2 28.956C85.2 27.284 85.64 25.7587 86.52 24.38C87.4293 22.972 88.7933 21.8573 90.612 21.036C92.46 20.1853 94.792 19.76 97.608 19.76C99.456 19.76 101.289 19.9947 103.108 20.464C104.927 20.9333 106.511 21.608 107.86 22.488L106.056 26.932C104.677 26.1107 103.255 25.5093 101.788 25.128C100.321 24.7173 98.9133 24.512 97.564 24.512C95.98 24.512 94.6893 24.7027 93.692 25.084C92.724 25.4653 92.0053 25.964 91.536 26.58C91.096 27.196 90.876 27.9 90.876 28.692C90.876 29.6307 91.1987 30.3933 91.844 30.98C92.5187 31.5373 93.384 31.9773 94.44 32.3C95.5253 32.6227 96.728 32.9453 98.048 33.268C99.368 33.5613 100.673 33.8987 101.964 34.28C103.284 34.6613 104.472 35.16 105.528 35.776C106.613 36.392 107.479 37.228 108.124 38.284C108.799 39.34 109.136 40.6747 109.136 42.288C109.136 43.9307 108.681 45.456 107.772 46.864C106.892 48.2427 105.528 49.3573 103.68 50.208C101.832 51.0293 99.5 51.44 96.684 51.44ZM128.756 51V46.248L128.448 45.236V36.92C128.448 35.3067 127.964 34.06 126.996 33.18C126.028 32.2707 124.561 31.816 122.596 31.816C121.276 31.816 119.971 32.0213 118.68 32.432C117.419 32.8427 116.348 33.4147 115.468 34.148L113.312 30.144C114.573 29.176 116.069 28.4573 117.8 27.988C119.56 27.4893 121.379 27.24 123.256 27.24C126.659 27.24 129.284 28.0613 131.132 29.704C133.009 31.3173 133.948 33.8253 133.948 37.228V51H128.756ZM121.364 51.308C119.604 51.308 118.064 51.0147 116.744 50.428C115.424 49.812 114.397 48.976 113.664 47.92C112.96 46.8347 112.608 45.6173 112.608 44.268C112.608 42.948 112.916 41.76 113.532 40.704C114.177 39.648 115.219 38.812 116.656 38.196C118.093 37.58 120 37.272 122.376 37.272H129.196V40.924H122.772C120.895 40.924 119.633 41.232 118.988 41.848C118.343 42.4347 118.02 43.168 118.02 44.048C118.02 45.0453 118.416 45.8373 119.208 46.424C120 47.0107 121.1 47.304 122.508 47.304C123.857 47.304 125.06 46.996 126.116 46.38C127.201 45.764 127.979 44.8547 128.448 43.652L129.372 46.952C128.844 48.3307 127.891 49.4013 126.512 50.164C125.163 50.9267 123.447 51.308 121.364 51.308ZM145.494 45.764L145.626 38.856L157.902 27.504H164.502L154.074 37.976L151.17 40.396L145.494 45.764ZM141.006 51V18.352H146.506V51H141.006ZM158.738 51L150.158 40.396L153.634 35.996L165.426 51H158.738ZM175.509 51.308C173.543 51.308 171.651 51.0587 169.833 50.56C168.043 50.032 166.621 49.4013 165.565 48.668L167.677 44.488C168.733 45.1627 169.994 45.72 171.461 46.16C172.927 46.6 174.394 46.82 175.861 46.82C177.591 46.82 178.838 46.5853 179.601 46.116C180.393 45.6467 180.789 45.016 180.789 44.224C180.789 43.5787 180.525 43.0947 179.997 42.772C179.469 42.42 178.779 42.156 177.929 41.98C177.078 41.804 176.125 41.6427 175.069 41.496C174.042 41.3493 173.001 41.1587 171.945 40.924C170.918 40.66 169.979 40.2933 169.129 39.824C168.278 39.3253 167.589 38.6653 167.061 37.844C166.533 37.0227 166.269 35.9373 166.269 34.588C166.269 33.092 166.694 31.8013 167.545 30.716C168.395 29.6013 169.583 28.7507 171.109 28.164C172.663 27.548 174.497 27.24 176.609 27.24C178.193 27.24 179.791 27.416 181.405 27.768C183.018 28.12 184.353 28.6187 185.409 29.264L183.297 33.444C182.182 32.7693 181.053 32.3147 179.909 32.08C178.794 31.816 177.679 31.684 176.565 31.684C174.893 31.684 173.646 31.9333 172.825 32.432C172.033 32.9307 171.637 33.5613 171.637 34.324C171.637 35.028 171.901 35.556 172.429 35.908C172.957 36.26 173.646 36.5387 174.497 36.744C175.347 36.9493 176.286 37.1253 177.313 37.272C178.369 37.3893 179.41 37.58 180.437 37.844C181.463 38.108 182.402 38.4747 183.253 38.944C184.133 39.384 184.837 40.0147 185.365 40.836C185.893 41.6573 186.157 42.728 186.157 44.048C186.157 45.5147 185.717 46.7907 184.837 47.876C183.986 48.9613 182.769 49.812 181.185 50.428C179.601 51.0147 177.709 51.308 175.509 51.308ZM204.225 27.24C206.102 27.24 207.774 27.6067 209.241 28.34C210.737 29.0733 211.91 30.2027 212.761 31.728C213.612 33.224 214.037 35.16 214.037 37.536V51H208.537V38.24C208.537 36.1573 208.038 34.6027 207.041 33.576C206.073 32.5493 204.709 32.036 202.949 32.036C201.658 32.036 200.514 32.3 199.517 32.828C198.52 33.356 197.742 34.148 197.185 35.204C196.657 36.2307 196.393 37.536 196.393 39.12V51H190.893V18.352H196.393V33.84L195.205 31.904C196.026 30.408 197.214 29.264 198.769 28.472C200.353 27.6507 202.172 27.24 204.225 27.24ZM235.49 51V46.248L235.182 45.236V36.92C235.182 35.3067 234.698 34.06 233.73 33.18C232.762 32.2707 231.296 31.816 229.33 31.816C228.01 31.816 226.705 32.0213 225.414 32.432C224.153 32.8427 223.082 33.4147 222.202 34.148L220.046 30.144C221.308 29.176 222.804 28.4573 224.534 27.988C226.294 27.4893 228.113 27.24 229.99 27.24C233.393 27.24 236.018 28.0613 237.866 29.704C239.744 31.3173 240.682 33.8253 240.682 37.228V51H235.49ZM228.098 51.308C226.338 51.308 224.798 51.0147 223.478 50.428C222.158 49.812 221.132 48.976 220.398 47.92C219.694 46.8347 219.342 45.6173 219.342 44.268C219.342 42.948 219.65 41.76 220.266 40.704C220.912 39.648 221.953 38.812 223.39 38.196C224.828 37.58 226.734 37.272 229.11 37.272H235.93V40.924H229.506C227.629 40.924 226.368 41.232 225.722 41.848C225.077 42.4347 224.754 43.168 224.754 44.048C224.754 45.0453 225.15 45.8373 225.942 46.424C226.734 47.0107 227.834 47.304 229.242 47.304C230.592 47.304 231.794 46.996 232.85 46.38C233.936 45.764 234.713 44.8547 235.182 43.652L236.106 46.952C235.578 48.3307 234.625 49.4013 233.246 50.164C231.897 50.9267 230.181 51.308 228.098 51.308ZM277.397 27.24C279.274 27.24 280.931 27.6067 282.369 28.34C283.835 29.0733 284.979 30.2027 285.801 31.728C286.622 33.224 287.033 35.16 287.033 37.536V51H281.533V38.24C281.533 36.1573 281.078 34.6027 280.169 33.576C279.259 32.5493 277.954 32.036 276.253 32.036C275.05 32.036 273.979 32.3 273.041 32.828C272.131 33.356 271.413 34.1333 270.885 35.16C270.386 36.1867 270.137 37.492 270.137 39.076V51H264.637V38.24C264.637 36.1573 264.182 34.6027 263.273 33.576C262.363 32.5493 261.058 32.036 259.357 32.036C258.154 32.036 257.083 32.3 256.145 32.828C255.235 33.356 254.517 34.1333 253.989 35.16C253.49 36.1867 253.241 37.492 253.241 39.076V51H247.741V27.504H252.977V33.752L252.053 31.904C252.845 30.3787 253.989 29.22 255.485 28.428C257.01 27.636 258.741 27.24 260.677 27.24C262.877 27.24 264.783 27.7827 266.397 28.868C268.039 29.9533 269.125 31.596 269.653 33.796L267.497 33.048C268.259 31.288 269.521 29.88 271.281 28.824C273.041 27.768 275.079 27.24 277.397 27.24Z" fill="#4540DB"/>
<defs>
<clipPath id="clip0_35_25586">
<rect width="70" height="70" fill="white"/>
</clipPath>
</defs>
</svg>
